# xmcd
#
# Track frame offsets: 
#        150
#        25032
#        45964
#        70822
#        80417
#        104201
#
# Disc length: 1705 seconds
#
# Revision: 4
# Processed by: cddbd v1.5.2PL0 Copyright (c) Steve Scherf et al.
# Submitted via: ExactAudioCopyFreeDBPlugin 1.0
#
DISCID=4406a706
DTITLE=Blodsrit - The Well Of Light Has Finally Dried
DYEAR=2006
DGENRE=Black Metal
TTITLE0=Illumnious Tu
TTITLE1=Into Nothingness
TTITLE2=Vid Grimnas Stränder
TTITLE3=En Enslig Klagan
TTITLE4=Jord
TTITLE5=Dödsraseri - Den Segervissa Modern
EXTD=
EXTT0=
EXTT1=
EXTT2=
EXTT3=
EXTT4=
EXTT5=
PLAYORDER=
